# xmcd
#
# Track frame offsets:
#	150
#	17175
#	60629
#	79719
#	98307
#	113625
#	131452
#	147698
#	168840
#	188801
#	201155
#	215296
#	228606
#	246021
#	261475
#	273091
#	291465
#
# Disc length: 4083 seconds
#
# Revision: 0
# Processed by: cddbd v1.5.2PL0 Copyright (c) Steve Scherf et al.
# Submitted via: EasyCDDAExtractor 16.1.0.1
#
DISCID=f50ff111
DTITLE=Victor and Leo - Ao Vivo em Floripa
DYEAR=2012
DGENRE=Sertanejo
TTITLE0=Nao Me Perdoei
TTITLE1=Boa Sorte Pra Voce-Estrela Cadente-Agua de Oceano
TTITLE2=Quando Voce Some
TTITLE3=Boteco de Esquina - Fio de Cabelo
TTITLE4=Beijo de Luz
TTITLE5=Sexy Yemanja
TTITLE6=Maluco
TTITLE7=Voce Sabia-Ao Vivo e em Cores-Sinto Falta de Voce
TTITLE8=Altas Horas
TTITLE9=Fuscao Preto
TTITLE10=Se Eu Nao Puder Te Esquecer
TTITLE11=Ainda Ontem Chorei de Saudades
TTITLE12=Sem Negar
TTITLE13=Nao Precisa
TTITLE14=Amor de Alma
TTITLE15=Meu eu em Voce
TTITLE16=Lagrimas
EXTD=
EXTT0=
EXTT1=
EXTT2=
EXTT3=
EXTT4=
EXTT5=
EXTT6=
EXTT7=
EXTT8=
EXTT9=
EXTT10=
EXTT11=
EXTT12=
EXTT13=
EXTT14=
EXTT15=
EXTT16=
PLAYORDER=
